# AST/ASF file generated using VICON BodyLanguage
# -----------------------------------------------
:version 1.10
:name VICON
:units
  mass 1.0
  length 0.45
  angle deg
:documentation
   .ast/.asf automatically generated from VICON data using
   VICON BodyBuilder and BodyLanguage model FoxedUp or BRILLIANT.MOD
:root
   order TX TY TZ RX RY RZ
   axis XYZ
   position 0 0 0  
   orientation 0 0 0 
:bonedata
  begin
     id 1 
     name lhipjoint
     direction 0.646657 -0.683706 0.338203 
     length 2.4948 
     axis 0 0 0  XYZ
  end
  begin
     id 2 
     name lfemur
     direction 0.34202 -0.939693 0  
     length 6.79491  
     axis 0 0 20  XYZ
    dof rx ry rz
    limits (-160.0 20.0)
           (-70.0 70.0)
           (-60.0 70.0)
  end
  begin
     id 3 
     name ltibia
     direction 0.34202 -0.939693 0   
     length 7.56807   
     axis 0 0 20   XYZ
    dof rx
    limits (-10.0 170.0)
  end
  begin
     id 4 
     name lfoot
     direction 0.0679796 -0.186772 0.980048   
     length 2.53018   
     axis -90 7.62852e-016 20   XYZ
    dof rx rz
    limits (-45.0 90.0)
           (-70.0 20.0)
  end
  begin
     id 5 
     name ltoes
     direction 1.53625e-011 -4.21881e-011 1   
     length 1.26912   
     axis -90 7.62852e-016 20   XYZ
    dof rx
    limits (-90.0 20.0)
  end
  begin
     id 6 
     name rhipjoint
     direction -0.618868 -0.704065 0.348274   
     length 2.42265  
     axis 0 0 0  XYZ 
  end
  begin
     id 7 
     name rfemur
     direction -0.34202 -0.939693 0   
     length 6.73814   
     axis 0 0 -20   XYZ
    dof rx ry rz
    limits (-160.0 20.0)
           (-70.0 70.0)
           (-70.0 60.0)
  end
  begin
     id 8 
     name rtibia
     direction -0.34202 -0.939693 0   
     length 7.66799   
     axis 0 0 -20   XYZ
    dof rx
    limits (-10.0 170.0)
 end
 begin
     id 9 
     name rfoot
     direction -0.0727352 -0.199838 0.977125   
     length 2.57224  
     axis -90 -7.62852e-016 -20   XYZ
    dof rx rz
    limits (-45.0 90.0)
           (-20.0 70.0)
  end
  begin
     id 10 
     name rtoes
     direction -1.53501e-011 -4.21858e-011 1   
     length 1.28858   
     axis -90 -7.62852e-016 -20   XYZ
    dof rx
    limits (-90.0 20.0)
  end
  begin
     id 11 
     name lowerback
     direction -0.0172471 0.995767 -0.0902851   
     length 2.20206   
     axis 0 0 0   XYZ
    dof rx ry rz
    limits (-20.0 45.0)
           (-30.0 30.0)
           (-30.0 30.0)
  end
  begin
     id 12 
     name upperback
     direction -0.000110737 0.999714 0.0239043   
     length 2.19523   
     axis 0 0 0   XYZ
    dof rx ry rz
    limits (-20.0 45.0)
           (-30.0 30.0)
           (-30.0 30.0)
  end
  begin
     id 13 
     name thorax
     direction 0.00704869 0.997783 0.0661741   
     length 2.21977   
     axis 0 0 0   XYZ
    dof rx ry rz
    limits (-20.0 45.0)
           (-30.0 30.0)
           (-30.0 30.0)
  end
  begin
     id 14 
     name lowerneck
     direction -0.00407501 0.995527 0.0943846   
     length 1.83142   
     axis 0 0 0   XYZ
    dof rx ry rz
    limits (-20.0 45.0)
           (-30.0 30.0)
           (-30.0 30.0)
  end
  begin
     id 15 
     name upperneck
     direction 0.0640586 0.986486 -0.150807   
     length 1.84616   
     axis 0 0 0   XYZ
    dof rx ry rz
    limits (-20.0 45.0)
           (-30.0 30.0)
           (-30.0 30.0)
  end
  begin
     id 16
     name head
     direction 0.0188017 0.99791 -0.0618239  
     length 1.85932  
     axis 0 0 0   XYZ
    dof rx ry rz
    limits (-20.0 45.0)
           (-30.0 30.0)
           (-30.0 30.0)
  end
  begin
     id 17 
     name lclavicle
     direction 0.976074 0.206905 0.066852  
     length 3.81043  
     axis 0 0 0   XYZ
    dof ry rz
    limits (-20.0 10.0)
           (0.0 20.0)
  end
  begin
     id 18 
     name lhumerus
     direction 1 -4.48971e-011 1.86916e-027   
     length 5.37587   
     axis 180 -30 -90   XYZ
    dof rx ry rz
    limits (-60.0 90.0)
           (-90.0 90.0)
           (-90.0 90.0)
  end
  begin
     id 19
     name lradius
     direction 1 -4.48968e-011 1.69187e-027   
     length 3.35977   
     axis 180 -30 -90   XYZ
    dof rx
    limits (-10.0 170.0)
  end
  begin
     id 20
     name lwrist
     direction 1 -4.48968e-011 5.8978e-027   
     length 1.67988   
     axis -3.27506e-015 90 90   XYZ
    dof ry
    limits (-180.0 0.0)
 end
  begin
     id 21 
     name lhand
     direction 1 -4.49028e-011 1.18071e-026   
     length 0.561859   
     axis -7.52654e-015 90 90   XYZ
    dof rx rz
    limits (-90.0 90.0)
           (-45.0 45.0)
  end
  begin
     id 22 
     name lfingers
     direction 1 -4.48927e-011 2.35758e-026   
     length 0.452985   
     axis -1.50534e-014 90 90   XYZ
    dof rx
    limits (0.0 90.0)
  end
  begin
     id 23
     name lthumb
     direction 0.707107 -6.34898e-011 0.707107   
     length 0.650399   
     axis -90 45 5.69224e-014   XYZ
    dof rx rz
    limits (-45.0 45.0)
           (-45.0 45.0)
  end
  begin
     id 24 
     name rclavicle
     direction -0.988403 0.151789 0.00439714   
     length 3.6942  
     axis 0 0 0   XYZ 
    dof ry rz
    limits (-10.0 20.0)
           (-20.0 0.0)
  end
  begin
     id 25 
     name rhumerus
     direction -1 -4.48978e-011 1.62495e-027  
     length 5.22819   
     axis 180 30 90   XYZ
    dof rx ry rz
    limits (-90.0 60.0)
           (-90.0 90.0)
           (-90.0 90.0)
  end
  begin
     id 26 
     name rradius
     direction -1 -4.48961e-011 3.47796e-027   
     length 3.40764   
     axis 180 30 90   XYZ
    dof rx
    limits (-10.0 170.0)
  end
  begin
     id 27 
     name rwrist
     direction -1 -4.48949e-011 5.89602e-027   
     length 1.70382   
     axis -3.27506e-015 -90 -90   XYZ
    dof ry
    limits (-180.0 0.0)
  end
  begin
     id 28
     name rhand
     direction -1 -4.48977e-011 1.17973e-026   
     length 0.583255   
     axis -7.52654e-015 -90 -90   XYZ
    dof rx rz
    limits (-90.0 90.0)
           (-45.0 45.0)
  end
  begin
     id 29
     name rfingers
     direction -1 -4.49099e-011 2.36408e-026   
     length 0.470235   
     axis -1.50534e-014 -90 -90   XYZ
    dof rx
    limits (0.0 90.0)
  end
  begin
     id 30
     name rthumb
     direction -0.707107 -6.35011e-011 0.707107   
     length 0.675167   
     axis -90 -45 -5.69224e-014   XYZ
    dof rx rz
    limits (-45.0 45.0)
           (-45.0 45.0)
  end
:hierarchy
  begin
    root lhipjoint rhipjoint lowerback
    lhipjoint lfemur
    lfemur ltibia
    ltibia lfoot
    lfoot ltoes
    rhipjoint rfemur
    rfemur rtibia
    rtibia rfoot
    rfoot rtoes
    lowerback upperback
    upperback thorax
    thorax lowerneck lclavicle rclavicle
    lowerneck upperneck
    upperneck head
    lclavicle lhumerus
    lhumerus lradius
    lradius lwrist
    lwrist lhand lthumb
    lhand lfingers
    rclavicle rhumerus
    rhumerus rradius
    rradius rwrist
    rwrist rhand rthumb
    rhand rfingers
  end

#!OML:ASF G:\JayActor3\Patient Classification 1\Patient 1\Session 2\male.ASF
:FULLY-SPECIFIED
:DEGREES
1124
root -25.991 16.7653 -4.51483 208.196 -84.4903 -203.347
lowerback -0.325484 -1.11814 -5.09032
upperback 8.06254 -1.50172 -0.0479154
thorax 8.81415 -1.21509 2.65705
lowerneck 6.66937 -8.27101 -10.3382
upperneck 4.78583 -12.4724 15.5065
head 1.93587 -6.44961 6.26929
rclavicle -1.32192e-014 -2.18663e-015
rhumerus -30.0552 10.848 -94.9404
rradius 54.2899
rwrist -0.0235087
rhand -6.31477 6.92178
rfingers 7.12502
rthumb 19.5297 -22.1174
lclavicle -1.32192e-014 -2.18663e-015
lhumerus -32.7121 4.91001 91.294
lradius 30.9508
lwrist 33.9029
lhand -10.6624 25.6509
lfingers 7.12502
lthumb 15.3457 55.0615
rfemur -40.1545 -1.74669 24.274
rtibia 26.2237
rfoot -3.7596 -12.1701
rtoes 9.22672
lfemur 5.01575 7.2425 -27.5395
ltibia 15.0233
lfoot -9.26674 -3.30959
ltoes -7.79959
1125
root -26.1231 16.7667 -4.5188 209.597 -84.4497 -204.724
lowerback -0.476682 -1.09721 -5.13367
upperback 8.01191 -1.45703 -0.0723439
thorax 8.84457 -1.19274 2.65695
lowerneck 6.45167 -8.07653 -9.99816
upperneck 4.97122 -12.1709 15.1333
head 1.9425 -6.28264 6.09889
rclavicle 5.08889e-014 9.74045e-015
rhumerus -30.0723 10.6508 -94.9264
rradius 54.1641
rwrist 0.00151066
rhand -6.31352 6.77872
rfingers 7.12502
rthumb 19.5309 -22.2603
lclavicle 5.08889e-014 9.74045e-015
lhumerus -32.7246 5.0201 91.2342
lradius 30.7077
lwrist 33.6683
lhand -10.5745 25.7564
lfingers 7.12502
lthumb 15.4303 55.1605
rfemur -40.3929 -2.89206 24.9217
rtibia 25.709
rfoot -2.31858 -12.4672
rtoes 8.97773
lfemur 5.9505 7.37363 -27.5975
ltibia 14.118
lfoot -8.72866 -3.50242
ltoes -8.13206
1126
root -26.2571 16.7653 -4.52341 211.072 -84.4061 -206.183
lowerback -0.63013 -1.07749 -5.18695
upperback 7.96594 -1.41313 -0.100649
thorax 8.88188 -1.17173 2.6582
lowerneck 6.24038 -7.89106 -9.66594
upperneck 5.15519 -11.8845 14.7716
head 1.95309 -6.12395 5.93294
rclavicle -2.13694e-015 2.27608e-014
rhumerus -30.0779 10.4698 -94.9124
rradius 54.0516
rwrist 0.016301
rhand -6.32725 6.64221
rfingers 7.12502
rthumb 19.5177 -22.3981
lclavicle -2.13694e-015 2.27608e-014
lhumerus -32.733 5.11749 91.1774
lradius 30.4614
lwrist 33.4558
lhand -10.4997 25.8711
lfingers 7.12502
lthumb 15.5024 55.2696
rfemur -40.6202 -4.04544 25.571
rtibia 25.34
rfoot -1.09187 -12.8536
rtoes 9.07009
lfemur 6.8659 7.49069 -27.66
ltibia 13.2763
lfoot -8.19759 -3.69317
ltoes -8.4694
1127
root -26.3929 16.7614 -4.52876 212.557 -84.361 -207.654
lowerback -0.783586 -1.06119 -5.24756
upperback 7.91935 -1.37324 -0.129417
thorax 8.91919 -1.15323 2.66286
lowerneck 6.02201 -7.71435 -9.34006
upperneck 5.35594 -11.6133 14.4119
head 1.97432 -5.9728 5.76735
rclavicle 2.09469e-014 2.8128e-014
rhumerus -30.0838 10.2986 -94.902
rradius 53.955
rwrist 0.0332484
rhand -6.34941 6.51542
rfingers 7.12502
rthumb 19.4964 -22.5271
lclavicle 2.09469e-014 2.8128e-014
lhumerus -32.7496 5.20688 91.1242
lradius 30.2216
lwrist 33.2743
lhand -10.4401 25.9962
lfingers 7.12502
lthumb 15.5598 55.3903
rfemur -40.8018 -5.09215 26.156
rtibia 25.1001
rfoot -0.232063 -13.371
rtoes 9.86374
lfemur 7.7381 7.59219 -27.7196
ltibia 12.5312
lfoot -7.68333 -3.88316
ltoes -8.77327
1128
root -26.5303 16.7549 -4.53491 214.016 -84.3136 -209.101
lowerback -0.933865 -1.04904 -5.31467
upperback 7.87136 -1.33862 -0.158087
thorax 8.95385 -1.13773 2.67099
lowerneck 5.78762 -7.5431 -9.01375
upperneck 5.58151 -11.3523 14.0476
head 2.00848 -5.82621 5.59878
rclavicle 1.89094e-014 2.50469e-014
rhumerus -30.0866 10.1407 -94.896
rradius 53.8689
rwrist 0.0485388
rhand -6.37329 6.40837
rfingers 7.12502
rthumb 19.4735 -22.6365
lclavicle 1.89094e-014 2.50469e-014
lhumerus -32.7757 5.28817 91.0729
lradius 29.9899
lwrist 33.1286
lhand -10.3971 26.1189
lfingers 7.12502
lthumb 15.6012 55.5098
rfemur -40.9206 -5.937 26.6207
rtibia 24.9647
rfoot 0.261108 -14.0424
rtoes 10.9968
lfemur 8.54422 7.67832 -27.7741
ltibia 11.9219
lfoot -7.20098 -4.06921
ltoes -9.09035
1129
root -26.6694 16.7457 -4.54171 215.447 -84.2659 -210.525
lowerback -1.0804 -1.04311 -5.38789
upperback 7.82228 -1.31226 -0.184859
thorax 8.98619 -1.12678 2.68398
lowerneck 5.53222 -7.37193 -8.68353
upperneck 5.84045 -11.0944 13.6715
head 2.05739 -5.68028 5.42454
rclavicle -1.35671e-014 1.4561e-014
rhumerus -30.0864 10.0088 -94.8932
rradius 53.7881
rwrist 0.0593575
rhand -6.40183 6.33266
rfingers 7.12502
rthumb 19.446 -22.7149
lclavicle -1.35671e-014 1.4561e-014
lhumerus -32.8145 5.36969 91.0237
lradius 29.766
lwrist 33.0091
lhand -10.3601 26.2264
lfingers 7.12502
lthumb 15.6369 55.6144
rfemur -40.9581 -6.52293 26.9237
rtibia 24.9293
rfoot 0.376407 -14.8364
rtoes 12.4727
lfemur 9.283 7.75605 -27.8235
ltibia 11.4599
lfoot -6.75545 -4.24768
ltoes -9.47917
1130
root -26.8102 16.7348 -4.54937 216.782 -84.2234 -211.852
lowerback -1.22478 -1.0449 -5.4606
upperback 7.76992 -1.29658 -0.20583
thorax 9.01478 -1.12108 2.70203
lowerneck 5.25544 -7.19498 -8.34396
upperneck 6.13203 -10.8305 13.275
head 2.11921 -5.53062 5.24163
rclavicle 2.93207e-015 -1.19271e-015
rhumerus -30.0848 9.89879 -94.8929
rradius 53.7155
rwrist 0.0739573
rhand -6.42406 6.285
rfingers 7.12502
rthumb 19.4247 -22.7648
lclavicle 2.93207e-015 -1.19271e-015
lhumerus -32.8703 5.44993 90.9774
lradius 29.5549
lwrist 32.9228
lhand -10.3271 26.3123
lfingers 7.12502
lthumb 15.6686 55.6979
rfemur -40.9167 -6.85217 27.0783
rtibia 24.9902
rfoot 0.288325 -15.6654
rtoes 13.9791
lfemur 9.94116 7.82409 -27.8563
ltibia 11.1535
lfoot -6.3461 -4.42264
ltoes -9.92305
1131
root -26.9531 16.7224 -4.55768 218.07 -84.1881 -213.137
lowerback -1.36607 -1.05373 -5.53177
upperback 7.71666 -1.29083 -0.222468
thorax 9.04157 -1.12026 2.723
lowerneck 4.95462 -7.01279 -7.99169
upperneck 6.45318 -10.5604 12.8573
head 2.19351 -5.37719 5.04938
rclavicle -2.69726e-014 -1.23246e-014
rhumerus -30.0757 9.81518 -94.8904
rradius 53.6484
rwrist 0.0875925
rhand -6.44315 6.26369
rfingers 7.12502
rthumb 19.4063 -22.7879
lclavicle -2.69726e-014 -1.23246e-014
lhumerus -32.9416 5.53486 90.9316
lradius 29.3534
lwrist 32.8543
lhand -10.2903 26.3754
lfingers 7.12502
lthumb 15.7041 55.7582
rfemur -40.8096 -7.00596 27.1256
rtibia 25.1537
rfoot 0.207895 -16.3823
rtoes 15.2397
lfemur 10.5228 7.88952 -27.8757
ltibia 11.0084
lfoot -5.97616 -4.59792
ltoes -10.4523
1132
root -27.0983 16.709 -4.5667 219.271 -84.1674 -214.339
lowerback -1.50304 -1.06999 -5.59179
upperback 7.65892 -1.29621 -0.23267
thorax 9.06168 -1.12402 2.7437
lowerneck 4.6397 -6.82372 -7.62711
upperneck 6.79915 -10.2822 12.4189
head 2.27731 -5.21958 4.84872
rclavicle -3.82039e-014 6.78353e-015
rhumerus -30.0727 9.74618 -94.8856
rradius 53.5988
rwrist 0.109426
rhand -6.4558 6.25306
rfingers 7.12502
rthumb 19.3941 -22.7998
lclavicle -3.82039e-014 6.78353e-015
lhumerus -33.0347 5.62779 90.8839
lradius 29.1593
lwrist 32.7938
lhand -10.2382 26.4059
lfingers 7.12502
lthumb 15.7542 55.7847
rfemur -40.6472 -7.05552 27.1172
rtibia 25.4184
rfoot 0.214383 -16.8625
rtoes 16.2448
lfemur 11.0177 7.95261 -27.8712
ltibia 11.0398
lfoot -5.64325 -4.77975
ltoes -10.9998
1133
root -27.2457 16.6946 -4.5764 220.354 -84.1668 -215.425
lowerback -1.63421 -1.09287 -5.63304
upperback 7.59778 -1.31242 -0.235034
thorax 9.07514 -1.13175 2.76136
lowerneck 4.30663 -6.63159 -7.25768
upperneck 7.16353 -10.0009 11.9696
head 2.37098 -5.0604 4.64366
rclavicle 3.00786e-014 -6.13748e-015
rhumerus -30.0803 9.68207 -94.8792
rradius 53.5699
rwrist 0.140281
rhand -6.46316 6.24726
rfingers 7.12502
rthumb 19.3871 -22.8063
lclavicle 3.00786e-014 -6.13748e-015
lhumerus -33.1459 5.72707 90.8332
lradius 28.974
lwrist 32.7488
lhand -10.1858 26.4399
lfingers 7.12502
lthumb 15.8047 55.8147
rfemur -40.4406 -7.09411 27.1217
rtibia 25.7811
rfoot 0.3604 -16.9784
rtoes 16.9183
lfemur 11.4156 8.01206 -27.835
ltibia 11.2662
lfoot -5.34655 -4.96788
ltoes -11.5033
1134
root -27.3955 16.6786 -4.58641 221.378 -84.1868 -216.463
lowerback -1.76057 -1.12106 -5.65349
upperback 7.53754 -1.33776 -0.232204
thorax 9.08695 -1.14265 2.77204
lowerneck 3.97389 -6.4375 -6.89398
upperneck 7.52601 -9.71828 11.5274
head 2.46712 -4.9016 4.4425
rclavicle -9.57583e-015 -1.6027e-014
rhumerus -30.0962 9.60845 -94.8677
rradius 53.5662
rwrist 0.171794
rhand -6.4606 6.23249
rfingers 7.12502
rthumb 19.3895 -22.8208
lclavicle -9.57583e-015 -1.6027e-014
lhumerus -33.2669 5.84093 90.7752
lradius 28.7866
lwrist 32.7023
lhand -10.1185 26.4512
lfingers 7.12502
lthumb 15.8696 55.8209
rfemur -40.1955 -7.14389 27.1406
rtibia 26.2267
rfoot 0.512513 -16.7084
rtoes 17.3978
lfemur 11.7122 8.0688 -27.7719
ltibia 11.7086
lfoot -5.09018 -5.1681
ltoes -11.9238
